<?xml version="1.0" encoding="UTF-8"?>
<svg xmlns="http://www.w3.org/2000/svg" width="800.000" height="600.000" viewBox="0.0 0.0 800.000 600.000" version="1.1">
  <title>Produce by Acme CAD Converter</title>
  <desc>Produce by Acme CAD Converter</desc>
<polyline points="322.78,160.39 322.97,159.67 323.49,159.15 324.2,158.96 324.91,159.15 325.43,159.67 325.62,160.39 325.43,161.1 324.91,161.62 324.2,161.81 323.49,161.62 322.97,161.1 322.78,160.39" style="fill:none;stroke:black;stroke-width:0.5"/>
<polyline points="361.02,307.66 361.21,306.95 361.73,306.43 362.44,306.24 363.16,306.43 363.68,306.95 363.87,307.66 363.68,308.37 363.16,308.89 362.44,309.08 361.73,308.89 361.21,308.37 361.02,307.66" style="fill:none;stroke:black;stroke-width:0.5"/>
<polyline points="322.78,373.57 322.97,372.86 323.49,372.34 324.2,372.14 324.91,372.34 325.43,372.86 325.62,373.57 325.43,374.28 324.91,374.8 324.2,374.99 323.49,374.8 322.97,374.28 322.78,373.57" style="fill:none;stroke:black;stroke-width:0.5"/>
<polyline points="350.44,373.57 350.63,372.86 351.15,372.34 351.87,372.14 352.58,372.34 353.1,372.86 353.29,373.57 353.1,374.28 352.58,374.8 351.87,374.99 351.15,374.8 350.63,374.28 350.44,373.57" style="fill:none;stroke:black;stroke-width:0.5"/>
<polyline points="350.44,160.39 350.63,159.67 351.15,159.15 351.87,158.96 352.58,159.15 353.1,159.67 353.29,160.39 353.1,161.1 352.58,161.62 351.87,161.81 351.15,161.62 350.63,161.1 350.44,160.39" style="fill:none;stroke:black;stroke-width:0.5"/>
<polyline points="312.2,226.29 312.39,225.58 312.91,225.06 313.62,224.87 314.33,225.06 314.86,225.58 315.05,226.29 314.86,227.01 314.33,227.53 313.62,227.72 312.91,227.53 312.39,227.01 312.2,226.29" style="fill:none;stroke:black;stroke-width:0.5"/>
<polyline points="361.02,226.29 361.21,225.58 361.73,225.06 362.44,224.87 363.16,225.06 363.68,225.58 363.87,226.29 363.68,227.01 363.16,227.53 362.44,227.72 361.73,227.53 361.21,227.01 361.02,226.29" style="fill:none;stroke:black;stroke-width:0.5"/>
<polyline points="312.2,307.66 312.39,306.95 312.91,306.43 313.62,306.24 314.33,306.43 314.86,306.95 315.05,307.66 314.86,308.37 314.33,308.89 313.62,309.08 312.91,308.89 312.39,308.37 312.2,307.66" style="fill:none;stroke:black;stroke-width:0.5"/>
<polyline points="314.84,282.72 315.03,282.12 315.54,281.75 316.17,281.75 316.68,282.12 316.87,282.72 316.68,283.32 316.17,283.69 315.54,283.69 315.03,283.32 314.84,282.72" style="fill:none;stroke:black;stroke-width:0.5"/>
<polyline points="321.15,270.64 321.34,270.04 321.85,269.67 322.48,269.67 322.99,270.04 323.18,270.64 322.99,271.24 322.48,271.61 321.85,271.61 321.34,271.24 321.15,270.64" style="fill:none;stroke:black;stroke-width:0.5"/>
<polyline points="352.88,270.64 353.08,270.04 353.59,269.67 354.21,269.67 354.72,270.04 354.92,270.64 354.72,271.24 354.21,271.61 353.59,271.61 353.08,271.24 352.88,270.64" style="fill:none;stroke:black;stroke-width:0.5"/>
<polyline points="352.88,263.32 353.08,262.72 353.59,262.35 354.21,262.35 354.72,262.72 354.92,263.32 354.72,263.91 354.21,264.28 353.59,264.28 353.08,263.91 352.88,263.32" style="fill:none;stroke:black;stroke-width:0.5"/>
<polyline points="321.15,263.32 321.34,262.72 321.85,262.35 322.48,262.35 322.99,262.72 323.18,263.32 322.99,263.91 322.48,264.28 321.85,264.28 321.34,263.91 321.15,263.32" style="fill:none;stroke:black;stroke-width:0.5"/>
<polyline points="321.15,220.19 321.34,219.59 321.85,219.22 322.48,219.22 322.99,219.59 323.18,220.19 322.99,220.79 322.48,221.16 321.85,221.16 321.34,220.79 321.15,220.19" style="fill:none;stroke:black;stroke-width:0.5"/>
<polyline points="352.88,220.19 353.08,219.59 353.59,219.22 354.21,219.22 354.72,219.59 354.92,220.19 354.72,220.79 354.21,221.16 353.59,221.16 353.08,220.79 352.88,220.19" style="fill:none;stroke:black;stroke-width:0.5"/>
<polyline points="314.84,251.23 315.03,250.63 315.54,250.27 316.17,250.27 316.68,250.63 316.87,251.23 316.68,251.83 316.17,252.2 315.54,252.2 315.03,251.83 314.84,251.23" style="fill:none;stroke:black;stroke-width:0.5"/>
<polyline points="359.19,251.23 359.39,250.63 359.9,250.27 360.52,250.27 361.03,250.63 361.23,251.23 361.03,251.83 360.52,252.2 359.9,252.2 359.39,251.83 359.19,251.23" style="fill:none;stroke:black;stroke-width:0.5"/>
<polyline points="352.88,313.76 353.08,313.17 353.59,312.8 354.21,312.8 354.72,313.17 354.92,313.76 354.72,314.36 354.21,314.73 353.59,314.73 353.08,314.36 352.88,313.76" style="fill:none;stroke:black;stroke-width:0.5"/>
<polyline points="321.15,313.76 321.34,313.17 321.85,312.8 322.48,312.8 322.99,313.17 323.18,313.76 322.99,314.36 322.48,314.73 321.85,314.73 321.34,314.36 321.15,313.76" style="fill:none;stroke:black;stroke-width:0.5"/>
<polyline points="359.19,282.72 359.39,282.12 359.9,281.75 360.52,281.75 361.03,282.12 361.23,282.72 361.03,283.32 360.52,283.69 359.9,283.69 359.39,283.32 359.19,282.72" style="fill:none;stroke:black;stroke-width:0.5"/>
<polyline points="315.25,216.53 315.25,160.41" style="fill:none;stroke:black;stroke-width:0.5"/>
<polyline points="315.25,160.41 338.03,153.88" style="fill:none;stroke:black;stroke-width:0.5"/>
<polyline points="360.82,160.41 360.82,216.53" style="fill:none;stroke:black;stroke-width:0.5"/>
<polyline points="366.51,222.23 366.51,311.73" style="fill:none;stroke:black;stroke-width:0.5"/>
<polyline points="360.82,317.43 360.82,373.55" style="fill:none;stroke:black;stroke-width:0.5"/>
<polyline points="360.82,373.55 338.03,380.08" style="fill:none;stroke:black;stroke-width:0.5"/>
<polyline points="338.03,380.08 315.25,373.55" style="fill:none;stroke:black;stroke-width:0.5"/>
<polyline points="315.25,373.55 315.25,317.43" style="fill:none;stroke:black;stroke-width:0.5"/>
<polyline points="309.55,311.73 309.55,222.23" style="fill:none;stroke:black;stroke-width:0.5"/>
<polyline points="338.03,153.88 360.82,160.41" style="fill:none;stroke:black;stroke-width:0.5"/>
<polyline points="360.82,216.53 361.01,218 361.58,219.38 362.48,220.56 363.66,221.46 365.04,222.03 366.51,222.23" style="fill:none;stroke:black;stroke-width:0.5"/>
<polyline points="366.51,311.73 365.04,311.92 363.66,312.49 362.48,313.4 361.58,314.58 361.01,315.95 360.82,317.43" style="fill:none;stroke:black;stroke-width:0.5"/>
<polyline points="315.25,317.43 315.06,315.95 314.49,314.58 313.58,313.4 312.4,312.49 311.03,311.92 309.55,311.73" style="fill:none;stroke:black;stroke-width:0.5"/>
<polyline points="309.55,222.23 311.03,222.03 312.4,221.46 313.58,220.56 314.49,219.38 315.06,218 315.25,216.53" style="fill:none;stroke:black;stroke-width:0.5"/>
<polyline points="403.85,156.14 404.04,155.43 404.56,154.9 405.27,154.71 405.98,154.9 406.5,155.43 406.7,156.14 406.5,156.85 405.98,157.37 405.27,157.56 404.56,157.37 404.04,156.85 403.85,156.14" style="fill:none;stroke:black;stroke-width:0.5"/>
<polyline points="428.46,357.89 428.65,357.18 429.17,356.66 429.88,356.47 430.6,356.66 431.12,357.18 431.31,357.89 431.12,358.6 430.6,359.13 429.88,359.32 429.17,359.13 428.65,358.6 428.46,357.89" style="fill:none;stroke:black;stroke-width:0.5"/>
<polyline points="428.46,326.16 428.65,325.45 429.17,324.93 429.88,324.73 430.6,324.93 431.12,325.45 431.31,326.16 431.12,326.87 430.6,327.39 429.88,327.58 429.17,327.39 428.65,326.87 428.46,326.16" style="fill:none;stroke:black;stroke-width:0.5"/>
<polyline points="428.46,205.73 428.65,205.02 429.17,204.5 429.88,204.31 430.6,204.5 431.12,205.02 431.31,205.73 431.12,206.45 430.6,206.97 429.88,207.16 429.17,206.97 428.65,206.45 428.46,205.73" style="fill:none;stroke:black;stroke-width:0.5"/>
<polyline points="452.87,306.63 453.06,305.92 453.58,305.4 454.3,305.21 455.01,305.4 455.53,305.92 455.72,306.63 455.53,307.34 455.01,307.86 454.3,308.05 453.58,307.86 453.06,307.34 452.87,306.63" style="fill:none;stroke:black;stroke-width:0.5"/>
<polyline points="404.05,225.26 404.24,224.55 404.76,224.03 405.47,223.84 406.19,224.03 406.71,224.55 406.9,225.26 406.71,225.97 406.19,226.5 405.47,226.69 404.76,226.5 404.24,225.97 404.05,225.26" style="fill:none;stroke:black;stroke-width:0.5"/>
<polyline points="452.87,225.26 453.06,224.55 453.58,224.03 454.3,223.84 455.01,224.03 455.53,224.55 455.72,225.26 455.53,225.97 455.01,226.5 454.3,226.69 453.58,226.5 453.06,225.97 452.87,225.26" style="fill:none;stroke:black;stroke-width:0.5"/>
<polyline points="453.07,156.14 453.27,155.43 453.79,154.9 454.5,154.71 455.21,154.9 455.73,155.43 455.92,156.14 455.73,156.85 455.21,157.37 454.5,157.56 453.79,157.37 453.27,156.85 453.07,156.14" style="fill:none;stroke:black;stroke-width:0.5"/>
<polyline points="404.05,306.63 404.24,305.92 404.76,305.4 405.47,305.21 406.19,305.4 406.71,305.92 406.9,306.63 406.71,307.34 406.19,307.86 405.47,308.05 404.76,307.86 404.24,307.34 404.05,306.63" style="fill:none;stroke:black;stroke-width:0.5"/>
<polyline points="403.85,375.76 404.04,375.04 404.56,374.52 405.27,374.33 405.98,374.52 406.5,375.04 406.7,375.76 406.5,376.47 405.98,376.99 405.27,377.18 404.56,376.99 404.04,376.47 403.85,375.76" style="fill:none;stroke:black;stroke-width:0.5"/>
<polyline points="453.07,375.76 453.27,375.04 453.79,374.52 454.5,374.33 455.21,374.52 455.73,375.04 455.92,375.76 455.73,376.47 455.21,376.99 454.5,377.18 453.79,376.99 453.27,376.47 453.07,375.76" style="fill:none;stroke:black;stroke-width:0.5"/>
<polyline points="428.46,174 428.65,173.29 429.17,172.77 429.88,172.58 430.6,172.77 431.12,173.29 431.31,174 431.12,174.71 430.6,175.23 429.88,175.43 429.17,175.23 428.65,174.71 428.46,174" style="fill:none;stroke:black;stroke-width:0.5"/>
<polyline points="412.19,249.67 412.38,248.96 412.9,248.44 413.61,248.25 414.32,248.44 414.84,248.96 415.04,249.67 414.84,250.39 414.32,250.91 413.61,251.1 412.9,250.91 412.38,250.39 412.19,249.67" style="fill:none;stroke:black;stroke-width:0.5"/>
<polyline points="412.19,282.22 412.38,281.51 412.9,280.99 413.61,280.8 414.32,280.99 414.84,281.51 415.04,282.22 414.84,282.93 414.32,283.45 413.61,283.64 412.9,283.45 412.38,282.93 412.19,282.22" style="fill:none;stroke:black;stroke-width:0.5"/>
<polyline points="444.73,282.22 444.93,281.51 445.45,280.99 446.16,280.8 446.87,280.99 447.39,281.51 447.58,282.22 447.39,282.93 446.87,283.45 446.16,283.64 445.45,283.45 444.93,282.93 444.73,282.22" style="fill:none;stroke:black;stroke-width:0.5"/>
<polyline points="444.73,249.67 444.93,248.96 445.45,248.44 446.16,248.25 446.87,248.44 447.39,248.96 447.58,249.67 447.39,250.39 446.87,250.91 446.16,251.1 445.45,250.91 444.93,250.39 444.73,249.67" style="fill:none;stroke:black;stroke-width:0.5"/>
<polyline points="429.88,386.81 404.35,379.49" style="fill:none;stroke:black;stroke-width:0.5"/>
<polyline points="401.41,375.58 401.41,370.1" style="fill:none;stroke:black;stroke-width:0.5"/>
<polyline points="401.41,370.1 401.81,370.1" style="fill:none;stroke:black;stroke-width:0.5"/>
<polyline points="411.17,360.74 411.17,320.06" style="fill:none;stroke:black;stroke-width:0.5"/>
<polyline points="401.81,310.7 401.41,310.7" style="fill:none;stroke:black;stroke-width:0.5"/>
<polyline points="401.41,310.7 401.41,221.19" style="fill:none;stroke:black;stroke-width:0.5"/>
<polyline points="401.41,221.19 401.81,221.19" style="fill:none;stroke:black;stroke-width:0.5"/>
<polyline points="411.17,211.84 411.17,171.15" style="fill:none;stroke:black;stroke-width:0.5"/>
<polyline points="401.81,161.8 401.41,161.8" style="fill:none;stroke:black;stroke-width:0.5"/>
<polyline points="401.41,161.8 401.41,156.32" style="fill:none;stroke:black;stroke-width:0.5"/>
<polyline points="458.36,156.32 458.36,161.8" style="fill:none;stroke:black;stroke-width:0.5"/>
<polyline points="458.36,161.8 457.96,161.8" style="fill:none;stroke:black;stroke-width:0.5"/>
<polyline points="448.6,171.15 448.6,211.84" style="fill:none;stroke:black;stroke-width:0.5"/>
<polyline points="457.96,221.19 458.36,221.19" style="fill:none;stroke:black;stroke-width:0.5"/>
<polyline points="458.36,221.19 458.36,310.7" style="fill:none;stroke:black;stroke-width:0.5"/>
<polyline points="458.36,310.7 457.96,310.7" style="fill:none;stroke:black;stroke-width:0.5"/>
<polyline points="448.6,320.06 448.6,360.74" style="fill:none;stroke:black;stroke-width:0.5"/>
<polyline points="457.96,370.1 458.36,370.1" style="fill:none;stroke:black;stroke-width:0.5"/>
<polyline points="458.36,370.1 458.36,375.58" style="fill:none;stroke:black;stroke-width:0.5"/>
<polyline points="455.42,379.49 429.88,386.81" style="fill:none;stroke:black;stroke-width:0.5"/>
<polyline points="429.88,145.09 455.42,152.41" style="fill:none;stroke:black;stroke-width:0.5"/>
<polyline points="404.35,152.41 429.88,145.09" style="fill:none;stroke:black;stroke-width:0.5"/>
<polyline points="401.41,375.58 401.54,376.61 401.94,377.58 402.57,378.42 403.39,379.07 404.35,379.49" style="fill:none;stroke:black;stroke-width:0.5"/>
<polyline points="401.81,370.1 403.64,369.92 405.39,369.38 407.01,368.52 408.43,367.36 409.59,365.94 410.46,364.32 410.99,362.57 411.17,360.74" style="fill:none;stroke:black;stroke-width:0.5"/>
<polyline points="411.17,320.06 410.99,318.23 410.46,316.48 409.59,314.86 408.43,313.44 407.01,312.28 405.39,311.41 403.64,310.88 401.81,310.7" style="fill:none;stroke:black;stroke-width:0.5"/>
<polyline points="401.81,221.19 403.64,221.01 405.39,220.48 407.01,219.62 408.43,218.45 409.59,217.04 410.46,215.42 410.99,213.66 411.17,211.84" style="fill:none;stroke:black;stroke-width:0.5"/>
<polyline points="411.17,171.15 410.99,169.33 410.46,167.57 409.59,165.95 408.43,164.54 407.01,163.37 405.39,162.51 403.64,161.98 401.81,161.8" style="fill:none;stroke:black;stroke-width:0.5"/>
<polyline points="404.35,152.41 403.39,152.82 402.57,153.47 401.94,154.31 401.54,155.28 401.41,156.32" style="fill:none;stroke:black;stroke-width:0.5"/>
<polyline points="458.36,156.32 458.23,155.28 457.83,154.31 457.2,153.47 456.38,152.82 455.42,152.41" style="fill:none;stroke:black;stroke-width:0.5"/>
<polyline points="457.96,161.8 456.13,161.98 454.38,162.51 452.76,163.37 451.34,164.54 450.18,165.95 449.31,167.57 448.78,169.33 448.6,171.15" style="fill:none;stroke:black;stroke-width:0.5"/>
<polyline points="448.6,211.84 448.78,213.66 449.31,215.42 450.18,217.04 451.34,218.45 452.76,219.62 454.38,220.48 456.13,221.01 457.96,221.19" style="fill:none;stroke:black;stroke-width:0.5"/>
<polyline points="457.96,310.7 456.13,310.88 454.38,311.41 452.76,312.28 451.34,313.44 450.18,314.86 449.31,316.48 448.78,318.23 448.6,320.06" style="fill:none;stroke:black;stroke-width:0.5"/>
<polyline points="448.6,360.74 448.78,362.57 449.31,364.32 450.18,365.94 451.34,367.36 452.76,368.52 454.38,369.38 456.13,369.92 457.96,370.1" style="fill:none;stroke:black;stroke-width:0.5"/>
<polyline points="455.42,379.49 456.38,379.07 457.2,378.42 457.83,377.58 458.23,376.61 458.36,375.58" style="fill:none;stroke:black;stroke-width:0.5"/>
<polyline points="428.01,258.33 427.81,258.77 427.89,259.25" style="fill:none;stroke:black;stroke-width:0.5"/>
<polyline points="446.26,257.78 444.7,256.46 442.94,255.42 441.05,254.67 439.05,254.24 437.01,254.13 434.98,254.36 433.02,254.91 431.17,255.77 429.48,256.92 428.01,258.33" style="fill:none;stroke:black;stroke-width:0.5"/>
<polyline points="446.26,257.78 446.62,257.95 447,257.83 447.22,257.49 447.15,257.09" style="fill:none;stroke:black;stroke-width:0.5"/>
<polyline points="447.15,257.09 445.74,255.03 444.03,253.2 442.06,251.65 439.88,250.43 437.53,249.55 435.08,249.03 432.58,248.9 430.09,249.15 427.67,249.78 425.37,250.76 423.25,252.09 421.35,253.73 419.73,255.63 418.41,257.76 417.44,260.07" style="fill:none;stroke:black;stroke-width:0.5"/>
<polyline points="417.44,260.07 417.15,261.53 417.26,263.02 417.75,264.44 418.59,265.67 419.72,266.64 421.07,267.29 422.54,267.57 424.02,267.45 425.43,266.95 426.66,266.1 427.63,264.96 428.26,263.61 428.53,262.14 428.4,260.65 427.89,259.25" style="fill:none;stroke:black;stroke-width:0.5"/>
<polyline points="437.42,268.13 437.14,267.73 436.68,267.57" style="fill:none;stroke:black;stroke-width:0.5"/>
<polyline points="428.77,284.21 430.69,283.51 432.47,282.52 434.07,281.25 435.44,279.74 436.55,278.03 437.37,276.16 437.88,274.18 438.05,272.15 437.9,270.11 437.42,268.13" style="fill:none;stroke:black;stroke-width:0.5"/>
<polyline points="428.77,284.21 428.45,284.44 428.36,284.83 428.55,285.19 428.92,285.33" style="fill:none;stroke:black;stroke-width:0.5"/>
<polyline points="428.92,285.33 431.42,285.14 433.85,284.57 436.18,283.64 438.33,282.36 440.26,280.77 441.93,278.9 443.3,276.81 444.33,274.52 445,272.11 445.29,269.63 445.2,267.12 444.73,264.67 443.9,262.31 442.71,260.1 441.2,258.11" style="fill:none;stroke:black;stroke-width:0.5"/>
<polyline points="441.2,258.11 440.07,257.13 438.73,256.47 437.26,256.19 435.77,256.3 434.36,256.79 433.13,257.64 432.16,258.77 431.51,260.12 431.24,261.59 431.36,263.08 431.87,264.48 432.72,265.71 433.86,266.67 435.21,267.31 436.68,267.57" style="fill:none;stroke:black;stroke-width:0.5"/>
<polyline points="431.02,279.67 432.43,279.18 433.67,278.34 434.64,277.21 435.29,275.87 435.57,274.4 435.46,272.91 434.96,271.5 434.12,270.27 432.98,269.3 431.63,268.66 430.16,268.39 428.67,268.52 427.27,269.02 426.04,269.88 425.08,271.02" style="fill:none;stroke:black;stroke-width:0.5"/>
<polyline points="424.23,271.38 424.71,271.34 425.08,271.02" style="fill:none;stroke:black;stroke-width:0.5"/>
<polyline points="414.63,255.85 414.27,257.86 414.24,259.9 414.54,261.92 415.16,263.86 416.09,265.68 417.3,267.32 418.76,268.75 420.43,269.92 422.27,270.81 424.23,271.38" style="fill:none;stroke:black;stroke-width:0.5"/>
<polyline points="414.63,255.85 414.59,255.45 414.29,255.18 413.89,255.17 413.58,255.42" style="fill:none;stroke:black;stroke-width:0.5"/>
<polyline points="413.58,255.42 412.5,257.68 411.77,260.07 411.42,262.55 411.45,265.05 411.86,267.52 412.64,269.9 413.77,272.13 415.24,274.17 416.99,275.95 419,277.45 421.21,278.62 423.57,279.45 426.03,279.9 428.53,279.97 431.02,279.67" style="fill:none;stroke:black;stroke-width:0.5"/>
<polyline points="339.11,418.77 339.89,418.38 341.05,417.22 341.05,425.36" style="fill:none;stroke:red;stroke-width:0.5"/>
<polyline points="345.7,424.58 345.31,424.97 345.7,425.36 346.09,424.97" style="fill:none;stroke:red;stroke-width:0.5"/>
<polyline points="353.84,417.22 349.96,417.22 349.58,420.71 349.96,420.32 351.13,419.93 352.29,419.93 353.45,420.32 354.23,421.09 354.61,422.26 354.61,423.03 354.23,424.19 353.45,424.97 352.29,425.36 351.13,425.36 349.96,424.97 349.58,424.58 349.19,423.81" style="fill:none;stroke:red;stroke-width:0.5"/>
<polyline points="356.94,425.36 356.94,419.93" style="fill:none;stroke:red;stroke-width:0.5"/>
<polyline points="356.94,421.48 358.1,420.32 358.88,419.93 360.04,419.93 360.81,420.32 361.2,421.48 361.2,425.36" style="fill:none;stroke:red;stroke-width:0.5"/>
<polyline points="361.2,421.48 362.36,420.32 363.14,419.93 364.3,419.93 365.07,420.32 365.46,421.48 365.46,425.36" style="fill:none;stroke:red;stroke-width:0.5"/>
<polyline points="368.56,425.36 368.56,419.93" style="fill:none;stroke:red;stroke-width:0.5"/>
<polyline points="368.56,421.48 369.72,420.32 370.5,419.93 371.66,419.93 372.44,420.32 372.82,421.48 372.82,425.36" style="fill:none;stroke:red;stroke-width:0.5"/>
<polyline points="372.82,421.48 373.99,420.32 374.76,419.93 375.92,419.93 376.7,420.32 377.09,421.48 377.09,425.36" style="fill:none;stroke:red;stroke-width:0.5"/>
<polyline points="387.55,425.36 390.65,417.22 393.75,425.36" style="fill:none;stroke:red;stroke-width:0.5"/>
<polyline points="388.71,422.64 392.58,422.64" style="fill:none;stroke:red;stroke-width:0.5"/>
<polyline points="396.07,425.36 396.07,417.22" style="fill:none;stroke:red;stroke-width:0.5"/>
<polyline points="399.17,419.93 399.17,423.81 399.56,424.97 400.33,425.36 401.5,425.36 402.27,424.97 403.43,423.81" style="fill:none;stroke:red;stroke-width:0.5"/>
<polyline points="403.43,419.93 403.43,425.36" style="fill:none;stroke:red;stroke-width:0.5"/>
<polyline points="406.53,425.36 406.53,419.93" style="fill:none;stroke:red;stroke-width:0.5"/>
<polyline points="406.53,421.48 407.7,420.32 408.47,419.93 409.63,419.93 410.41,420.32 410.8,421.48 410.8,425.36" style="fill:none;stroke:red;stroke-width:0.5"/>
<polyline points="410.8,421.48 411.96,420.32 412.73,419.93 413.9,419.93 414.67,420.32 415.06,421.48 415.06,425.36" style="fill:none;stroke:red;stroke-width:0.5"/>
<polyline points="418.16,417.61 418.54,417.99 418.93,417.61 418.54,417.22 418.16,417.61" style="fill:none;stroke:red;stroke-width:0.5"/>
<polyline points="418.54,419.93 418.54,425.36" style="fill:none;stroke:red;stroke-width:0.5"/>
<polyline points="421.26,425.36 421.26,419.93" style="fill:none;stroke:red;stroke-width:0.5"/>
<polyline points="421.26,421.48 422.42,420.32 423.19,419.93 424.36,419.93 425.13,420.32 425.52,421.48 425.52,425.36" style="fill:none;stroke:red;stroke-width:0.5"/>
<polyline points="428.62,417.61 429.01,417.99 429.39,417.61 429.01,417.22 428.62,417.61" style="fill:none;stroke:red;stroke-width:0.5"/>
<polyline points="429.01,419.93 429.01,425.36" style="fill:none;stroke:red;stroke-width:0.5"/>
<polyline points="431.72,419.93 431.72,423.81 432.11,424.97 432.88,425.36 434.04,425.36 434.82,424.97 435.98,423.81" style="fill:none;stroke:red;stroke-width:0.5"/>
<polyline points="435.98,419.93 435.98,425.36" style="fill:none;stroke:red;stroke-width:0.5"/>
<polyline points="439.08,425.36 439.08,419.93" style="fill:none;stroke:red;stroke-width:0.5"/>
<polyline points="439.08,421.48 440.24,420.32 441.02,419.93 442.18,419.93 442.96,420.32 443.34,421.48 443.34,425.36" style="fill:none;stroke:red;stroke-width:0.5"/>
<polyline points="443.34,421.48 444.5,420.32 445.28,419.93 446.44,419.93 447.22,420.32 447.6,421.48 447.6,425.36" style="fill:none;stroke:red;stroke-width:0.5"/>
<polyline points="339.11,430.78 339.11,438.92 343.76,438.92" style="fill:none;stroke:red;stroke-width:0.5"/>
<polyline points="350.35,433.49 350.35,438.92" style="fill:none;stroke:red;stroke-width:0.5"/>
<polyline points="350.35,434.65 349.58,433.88 348.8,433.49 347.64,433.49 346.86,433.88 346.09,434.65 345.7,435.82 345.7,436.59 346.09,437.75 346.86,438.53 347.64,438.92 348.8,438.92 349.58,438.53 350.35,437.75" style="fill:none;stroke:red;stroke-width:0.5"/>
<polyline points="357.33,434.65 356.94,433.88 355.78,433.49 354.61,433.49 353.45,433.88 353.06,434.65 353.45,435.43 354.23,435.82 356.16,436.2 356.94,436.59 357.33,437.37 357.33,437.75 356.94,438.53 355.78,438.92 354.61,438.92 353.45,438.53 353.06,437.75" style="fill:none;stroke:red;stroke-width:0.5"/>
<polyline points="359.65,435.82 364.3,435.82 364.3,435.04 363.91,434.27 363.52,433.88 362.75,433.49 361.59,433.49 360.81,433.88 360.04,434.65 359.65,435.82 359.65,436.59 360.04,437.75 360.81,438.53 361.59,438.92 362.75,438.92 363.52,438.53 364.3,437.75" style="fill:none;stroke:red;stroke-width:0.5"/>
<polyline points="366.62,438.92 366.62,433.49" style="fill:none;stroke:red;stroke-width:0.5"/>
<polyline points="366.62,435.82 367.01,434.65 367.79,433.88 368.56,433.49 369.72,433.49" style="fill:none;stroke:red;stroke-width:0.5"/>
<polyline points="383.67,434.65 382.9,433.88 382.12,433.49 380.96,433.49 380.19,433.88 379.41,434.65 379.02,435.82 379.02,436.59 379.41,437.75 380.19,438.53 380.96,438.92 382.12,438.92 382.9,438.53 383.67,437.75" style="fill:none;stroke:red;stroke-width:0.5"/>
<polyline points="386,433.49 386,437.37 386.39,438.53 387.16,438.92 388.32,438.92 389.1,438.53 390.26,437.37" style="fill:none;stroke:red;stroke-width:0.5"/>
<polyline points="390.26,433.49 390.26,438.92" style="fill:none;stroke:red;stroke-width:0.5"/>
<polyline points="394.52,430.78 394.52,437.37 394.91,438.53 395.68,438.92 396.46,438.92" style="fill:none;stroke:red;stroke-width:0.5"/>
<polyline points="393.36,433.49 396.07,433.49" style="fill:none;stroke:red;stroke-width:0.5"/>
<polyline points="399.95,430.78 399.95,437.37 400.33,438.53 401.11,438.92 401.88,438.92" style="fill:none;stroke:red;stroke-width:0.5"/>
<polyline points="398.78,433.49 401.5,433.49" style="fill:none;stroke:red;stroke-width:0.5"/>
<polyline points="404.21,431.17 404.6,431.56 404.98,431.17 404.6,430.78 404.21,431.17" style="fill:none;stroke:red;stroke-width:0.5"/>
<polyline points="404.6,433.49 404.6,438.92" style="fill:none;stroke:red;stroke-width:0.5"/>
<polyline points="407.31,438.92 407.31,433.49" style="fill:none;stroke:red;stroke-width:0.5"/>
<polyline points="407.31,435.04 408.47,433.88 409.25,433.49 410.41,433.49 411.18,433.88 411.57,435.04 411.57,438.92" style="fill:none;stroke:red;stroke-width:0.5"/>
<polyline points="419.32,433.49 419.32,439.69 418.93,440.85 418.54,441.24 417.77,441.63 416.61,441.63 415.83,441.24" style="fill:none;stroke:red;stroke-width:0.5"/>
<polyline points="419.32,434.65 418.54,433.88 417.77,433.49 416.61,433.49 415.83,433.88 415.06,434.65 414.67,435.82 414.67,436.59 415.06,437.75 415.83,438.53 416.61,438.92 417.77,438.92 418.54,438.53 419.32,437.75" style="fill:none;stroke:red;stroke-width:0.5"/>
<polyline points="339.11,444.34 339.11,450.15 339.5,451.32 340.28,452.09 341.44,452.48 342.21,452.48 343.38,452.09 344.15,451.32 344.54,450.15 344.54,444.34" style="fill:none;stroke:red;stroke-width:0.5"/>
<polyline points="347.64,452.48 347.64,447.05" style="fill:none;stroke:red;stroke-width:0.5"/>
<polyline points="347.64,448.6 348.8,447.44 349.58,447.05 350.74,447.05 351.51,447.44 351.9,448.6 351.9,452.48" style="fill:none;stroke:red;stroke-width:0.5"/>
<polyline points="355,444.73 355.39,445.12 355.78,444.73 355.39,444.34 355,444.73" style="fill:none;stroke:red;stroke-width:0.5"/>
<polyline points="355.39,447.05 355.39,452.48" style="fill:none;stroke:red;stroke-width:0.5"/>
<polyline points="359.26,444.34 359.26,450.93 359.65,452.09 360.43,452.48 361.2,452.48" style="fill:none;stroke:red;stroke-width:0.5"/>
<polyline points="358.1,447.05 360.81,447.05" style="fill:none;stroke:red;stroke-width:0.5"/>
<polyline points="363.91,447.05 363.52,447.44 363.91,447.83 364.3,447.44 363.91,447.05" style="fill:none;stroke:red;stroke-width:0.5"/>
<polyline points="363.91,451.7 363.52,452.09 363.91,452.48 364.3,452.09 363.91,451.7" style="fill:none;stroke:red;stroke-width:0.5"/>
<polyline points="376.7,452.48 376.7,447.05" style="fill:none;stroke:red;stroke-width:0.5"/>
<polyline points="376.7,448.6 377.86,447.44 378.64,447.05 379.8,447.05 380.57,447.44 380.96,448.6 380.96,452.48" style="fill:none;stroke:red;stroke-width:0.5"/>
<polyline points="380.96,448.6 382.12,447.44 382.9,447.05 384.06,447.05 384.84,447.44 385.22,448.6 385.22,452.48" style="fill:none;stroke:red;stroke-width:0.5"/>
<polyline points="388.32,452.48 388.32,447.05" style="fill:none;stroke:red;stroke-width:0.5"/>
<polyline points="388.32,448.6 389.48,447.44 390.26,447.05 391.42,447.05 392.2,447.44 392.58,448.6 392.58,452.48" style="fill:none;stroke:red;stroke-width:0.5"/>
<polyline points="392.58,448.6 393.75,447.44 394.52,447.05 395.68,447.05 396.46,447.44 396.85,448.6 396.85,452.48" style="fill:none;stroke:red;stroke-width:0.5"/>
<polyline points="430.39,145.09 490.43,145.09" style="fill:none;stroke:yellow;stroke-width:0.5"/>
<polyline points="430.39,386.81 490.43,386.81" style="fill:none;stroke:yellow;stroke-width:0.5"/>
<polyline points="489.42,147.12 489.42,384.77" style="fill:none;stroke:yellow;stroke-width:0.5"/>
<path d="M489.08 147.12L489.42 145.09 489.42 145.09 489.76 147.12 489.08 147.12Z"
fill-rule="evenodd" fill="yellow"/>
<path d="M489.08 384.77L489.42 386.81 489.42 386.81 489.76 384.77 489.08 384.77Z"
fill-rule="evenodd" fill="yellow"/>
<polyline points="486.87,271.03 486.54,270.69 486.54,270.02 486.87,269.68 487.21,269.68 487.55,270.02 487.55,270.69 487.89,271.03 488.57,271.03 488.57,269.68" style="fill:none;stroke:yellow;stroke-width:0.5"/>
<polyline points="488.57,268.66 488.57,268.32 487.89,267.64 486.87,267.64 486.54,267.98 486.54,268.66 486.87,269 487.21,269 487.55,268.66 487.55,267.64" style="fill:none;stroke:yellow;stroke-width:0.5"/>
<polyline points="486.54,266.96 486.54,265.61 488.57,266.62" style="fill:none;stroke:yellow;stroke-width:0.5"/>
<polyline points="488.23,264.59 488.57,264.59 488.91,264.93" style="fill:none;stroke:yellow;stroke-width:0.5"/>
<polyline points="488.57,263.57 488.23,263.91 486.87,263.91 486.54,263.57 486.54,263.23 486.87,262.9 488.23,262.9 488.57,263.23 488.57,263.57" style="fill:none;stroke:yellow;stroke-width:0.5"/>
<polyline points="486.54,262.22 486.54,260.86 488.57,261.88" style="fill:none;stroke:yellow;stroke-width:0.5"/>
<polyline points="429.88,145.09 429.88,145.09" style="fill:none;stroke:yellow;stroke-width:0.5"/>
<polyline points="429.88,386.81 429.88,386.81" style="fill:none;stroke:yellow;stroke-width:0.5"/>
<polyline points="489.42,386.81 489.42,386.81" style="fill:none;stroke:yellow;stroke-width:0.5"/>
</svg>
